<?xml version="1.0" encoding="utf-8"?>
<!-- Generator: Adobe Illustrator 16.0.0, SVG Export Plug-In . SVG Version: 6.00 Build 0)  -->
<!DOCTYPE svg PUBLIC "-//W3C//DTD SVG 1.1//EN" "http://www.w3.org/Graphics/SVG/1.1/DTD/svg11.dtd">
<svg version="1.1" id="Layer_1" xmlns="http://www.w3.org/2000/svg" xmlns:xlink="http://www.w3.org/1999/xlink" x="0px" y="0px"
	 width="1020px" height="192px" viewBox="0 0 1020 192" enable-background="new 0 0 1020 192" xml:space="preserve">
<linearGradient id="SVGID_1_" gradientUnits="userSpaceOnUse" x1="215.6035" y1="-299.1616" x2="216.2845" y2="-299.0306" gradientTransform="matrix(1206 0 0 717 -259840.5 214548)">
	<stop  offset="0" style="stop-color:#37003C"/>
	<stop  offset="1" style="stop-color:#FC2C80"/>
</linearGradient>
<path fill="url(#SVGID_1_)" d="M311,0c80.6,12.7,164,18.9,244,18.9l-18.9,39.3c25.5,1.399,30.9,0.7,56.801,0.7
	c171,0,276.3,8,427.1-50.3V0H311z M958.6,192h61.4v-23C999.9,177.1,979.4,184.8,958.6,192z M322,153.3l37.8-28.1
	C229.7,120.7,115,67.7,0,22v103.2C49.6,150.1,102.6,172.9,156.9,192h578.7l27.801-27.9C692.6,177.3,641.9,179.6,567.3,179.6
	C481.1,179.6,403,170.8,322,153.3L322,153.3z"/>
</svg>
